<svg version="1.1" id="Layer_1" xmlns="http://www.w3.org/2000/svg" xmlns:xlink="http://www.w3.org/1999/xlink" x="0px" y="0px"
	 width="100%" viewBox="0 0 992 992" enable-background="new 0 0 992 992" xml:space="preserve">
<path fill="#000000" opacity="1.000000" stroke="none" 
	d="
M649.270630,511.687378 
	C669.551819,522.202148 689.490784,532.583130 707.945435,545.520386 
	C728.507812,559.935120 741.889954,579.431641 748.184143,603.654663 
	C753.386902,623.677673 753.969727,643.800903 751.025330,664.462341 
	C747.030945,692.492188 732.824158,713.964966 712.253052,732.087280 
	C694.896301,747.377991 674.556763,757.675293 653.084290,765.531250 
	C636.288147,771.676208 618.837952,776.039246 601.155579,778.860107 
	C581.427917,782.007324 561.508179,783.753662 541.504150,783.853394 
	C513.342041,783.993713 485.178864,783.946411 457.016144,783.931641 
	C437.987366,783.921631 419.048492,782.036865 400.371979,778.848206 
	C367.939636,773.311035 336.640961,764.081360 308.405914,746.348206 
	C286.053345,732.309509 267.739838,714.552734 257.010773,690.061768 
	C252.196640,679.072632 249.740616,667.351196 248.965668,655.290771 
	C248.184204,643.129089 247.851425,630.918579 249.698318,618.914673 
	C254.599548,587.059143 268.947021,560.862976 296.609772,542.827515 
	C319.530396,527.883850 344.039246,515.856384 368.129730,503.047974 
	C374.592957,499.611603 381.145721,496.311615 387.404938,492.531097 
	C396.908600,486.790985 398.077698,476.585663 390.362579,468.873108 
	C375.837128,454.352356 363.947510,438.061523 357.068451,418.528015 
	C351.577484,402.936096 349.523743,386.756653 351.385284,370.374634 
	C352.789642,358.016083 350.055420,346.171906 348.756653,334.129089 
	C348.472504,331.494110 346.508148,330.379150 344.150208,330.490448 
	C339.121033,330.727753 337.834778,327.817780 337.841278,323.590820 
	C337.851227,317.091858 337.919647,310.592102 337.841095,304.094208 
	C337.797485,300.483917 338.854034,298.390778 342.874603,297.458893 
	C351.151337,295.540558 359.563171,294.706390 367.947998,293.919189 
	C372.574554,293.484863 375.518707,291.938049 378.088470,288.062225 
	C396.002563,261.043457 419.593414,240.522644 449.399963,227.586502 
	C471.094452,218.171051 494.107178,215.314392 517.320923,218.368805 
	C548.199158,222.431686 574.714355,236.414886 597.421265,257.711243 
	C607.557678,267.217926 616.478149,277.693726 623.757141,289.530426 
	C625.242249,291.945374 627.323303,292.780334 629.934021,293.119934 
	C639.803101,294.403687 649.698975,295.466553 659.485352,297.392517 
	C662.676147,298.020447 663.936157,299.487885 664.469910,302.526520 
	C665.901917,310.678619 665.558289,318.760895 664.112427,326.847443 
	C663.648132,329.444000 661.956360,330.527344 659.467285,330.343567 
	C655.831970,330.075165 654.242126,332.018555 653.985474,335.315369 
	C653.059204,347.215179 649.126587,358.722748 650.116211,370.914520 
	C651.475098,387.656281 649.520447,404.238220 643.671509,419.954681 
	C637.761353,435.835541 628.132812,449.657959 616.797791,462.259399 
	C612.816589,466.685394 608.476746,470.820129 607.042114,477.048462 
	C605.798279,482.448456 607.095764,486.987122 611.065430,490.501038 
	C617.371216,496.082886 625.337952,498.943878 632.641174,502.885345 
	C638.052429,505.805725 643.496704,508.664886 649.270630,511.687378 
M501.500000,764.804016 
	C517.664734,764.791199 533.832642,764.574280 549.993408,764.820679 
	C567.543518,765.088196 584.880066,763.052185 602.011780,759.777344 
	C626.586792,755.079773 650.337646,747.776733 672.768494,736.240540 
	C686.122925,729.372314 697.763489,720.473755 708.827820,710.561584 
	C711.814026,707.886292 712.171570,705.463074 710.030884,701.896606 
	C697.827942,681.565979 688.000122,660.183105 681.527649,637.281128 
	C676.951843,621.090393 672.838318,604.835999 671.049927,588.067383 
	C670.854553,586.234924 670.290955,583.865295 672.131348,583.023254 
	C676.390076,581.074341 681.109131,579.986450 685.679016,581.288757 
	C689.229309,582.300415 687.876526,586.001892 688.234070,588.663757 
	C688.344727,589.487000 688.335144,590.337402 688.537109,591.135803 
	C691.585632,603.189392 693.589783,615.474121 697.005554,627.458618 
	C702.729004,647.539978 710.205139,666.861755 720.514404,685.043213 
	C721.285034,686.402161 721.873413,688.188293 724.465698,688.342896 
	C730.250977,679.768250 732.328552,669.761780 733.770874,659.627441 
	C736.117188,643.142029 735.504517,626.671021 731.615723,610.497681 
	C727.858459,594.871216 720.818970,580.664978 709.061035,569.524292 
	C689.570801,551.057373 664.940735,540.627441 641.767822,528.010986 
	C628.623718,520.854675 615.166748,514.263794 602.266785,506.654175 
	C597.541199,503.866608 594.114868,499.740631 592.139282,494.642181 
	C586.162292,479.217590 588.606750,465.430878 600.210938,453.325256 
	C611.345764,441.709320 620.656494,428.775787 626.350403,413.610443 
	C628.066895,409.038574 630.617493,404.306763 629.255493,399.177979 
	C627.730408,398.827423 627.044922,399.256226 626.382690,399.792206 
	C619.376892,405.462402 611.341919,408.834473 602.494995,410.257233 
	C600.261414,410.616394 599.234558,411.669495 599.211853,413.837067 
	C599.185730,416.336334 599.137451,418.836456 599.173218,421.335144 
	C599.354980,434.037048 593.898987,443.924103 584.514709,452.200073 
	C570.440063,464.612488 553.372986,470.794220 535.635193,474.470795 
	C519.464539,477.822540 503.124268,479.942291 486.141998,477.524536 
	C466.987762,474.797546 448.739136,470.438721 431.454468,461.672363 
	C411.407867,451.505219 402.336365,436.204834 404.044128,413.940308 
	C404.218567,411.666351 403.722198,410.566559 401.294678,410.267365 
	C392.371033,409.167542 384.313538,405.914581 377.047668,400.533600 
	C375.200562,399.165649 373.514587,397.152466 371.021454,396.858826 
	C370.043793,398.350800 370.865753,399.364563 371.236877,400.425537 
	C371.620819,401.523041 372.178345,402.581665 372.406250,403.708649 
	C376.534271,424.120667 388.213135,440.183563 402.405090,454.544800 
	C411.743286,463.994324 415.834900,474.385773 412.289612,487.514221 
	C409.353424,498.387268 402.424866,505.524933 392.736694,510.808502 
	C365.889313,525.450073 338.314026,538.704895 312.111053,554.595154 
	C281.677795,573.050781 268.611969,600.826294 266.225739,634.974548 
	C265.310608,648.071106 268.057251,660.820435 270.625183,673.492065 
	C271.727142,678.929932 274.341553,684.207458 277.873016,689.400757 
	C279.304871,687.222900 280.422180,685.764709 281.286652,684.169434 
	C287.146851,673.355530 292.037964,662.131958 296.526123,650.659302 
	C304.067383,631.382263 309.412933,611.644470 311.938995,591.101501 
	C312.348694,587.769470 312.435791,583.254578 315.061401,581.607666 
	C319.022858,579.122803 323.832031,581.422852 328.056915,582.734253 
	C331.176361,583.702515 330.435242,586.930603 330.197662,589.256958 
	C329.020264,600.786682 326.992126,612.161377 324.051208,623.400574 
	C319.631622,640.290649 314.245514,656.806091 307.042816,672.738098 
	C302.652557,682.449097 297.772644,691.898682 292.198730,700.946411 
	C289.369019,705.539612 290.701599,708.443298 294.097870,711.730774 
	C308.278046,725.456421 324.807617,735.602661 342.885010,743.105896 
	C359.579071,750.034912 376.924683,754.830688 394.702057,758.544739 
	C415.332611,762.854797 435.999908,764.970947 457.004272,764.789734 
	C471.501709,764.664673 486.001343,764.789612 501.500000,764.804016 
M532.808655,240.725464 
	C529.917236,239.250473 526.673279,239.320129 523.606018,238.616074 
	C502.956055,233.876175 482.674622,235.623047 462.814819,242.480438 
	C446.254120,248.198685 431.669983,257.417297 418.679474,269.100159 
	C412.087341,275.028748 405.832825,281.326752 401.190979,289.095978 
	C402.972534,290.079956 404.491241,289.690948 405.948669,289.568878 
	C428.640381,287.668884 451.104187,289.048401 473.368347,293.922577 
	C476.598511,294.629730 479.691864,295.868958 483.111237,295.961151 
	C503.898468,296.521576 524.565796,295.903351 545.012146,291.493134 
	C559.273987,288.416931 573.729126,288.219910 588.238403,289.552765 
	C592.125061,289.909821 596.086060,290.168396 600.888062,289.136078 
	C583.392578,265.274719 561.004822,249.641418 532.808655,240.725464 
M497.557678,460.725494 
	C514.095642,461.739136 530.093079,458.729614 545.680786,453.631104 
	C556.122009,450.216003 566.134277,445.698700 574.388611,438.074799 
	C581.582947,431.429993 582.446106,423.161316 580.537048,414.217773 
	C580.092712,412.135773 578.673279,410.462158 576.430908,410.399780 
	C572.675720,410.295380 569.170471,409.015656 565.800720,407.822693 
	C558.755737,405.328583 551.028931,405.686646 544.276794,401.846344 
	C537.928528,398.235748 533.038513,392.962311 527.821777,388.202850 
	C514.615356,376.154114 488.198151,375.572662 474.468475,388.605347 
	C470.386414,392.480164 466.597931,396.695251 461.879089,399.900726 
	C451.742432,406.786499 439.614685,407.153107 428.288818,409.934906 
	C423.563812,411.095428 421.815186,413.102814 421.302155,417.342957 
	C420.019073,427.947418 424.811157,435.814484 433.068146,441.521027 
	C452.125305,454.691681 473.816559,459.584015 497.557678,460.725494 
M381.358582,362.051331 
	C382.932556,365.160370 384.249756,368.434998 386.128143,371.347687 
	C391.968475,380.403778 399.229889,388.067627 410.482056,389.549255 
	C427.902710,391.843079 441.773132,384.855774 451.928253,371.015106 
	C461.412384,358.088959 466.546173,343.618774 465.117798,327.150787 
	C464.684326,322.153778 462.796539,318.839661 458.307343,317.243988 
	C436.452820,309.476074 414.287445,310.105469 392.192719,315.777283 
	C385.073730,317.604767 379.242096,321.963104 377.886078,330.099091 
	C376.103546,340.794220 376.752289,351.252747 381.358582,362.051331 
M537.177490,331.360748 
	C536.858948,334.947540 538.569092,338.189575 538.926453,341.662628 
	C540.421631,356.192688 546.981567,368.437683 557.359619,378.228149 
	C568.126953,388.385925 581.211548,392.724548 595.997864,388.435028 
	C616.736450,382.418701 629.339172,354.099121 624.503906,332.371307 
	C623.525574,327.975403 622.437012,322.849945 618.431885,320.095703 
	C612.366577,315.924683 605.520874,312.819092 598.074097,312.471497 
	C582.636780,311.750946 567.192688,311.043549 551.854187,314.381531 
	C541.691956,316.593048 537.184998,321.046204 537.177490,331.360748 
M497.491028,323.847748 
	C493.874420,324.105621 492.570892,326.031128 492.112732,329.654388 
	C491.435699,335.008484 489.355255,340.206024 488.883301,345.559357 
	C488.398773,351.055359 485.803894,356.277924 486.462921,362.790253 
	C496.960083,359.725586 507.067780,360.553619 517.981812,363.233795 
	C514.383240,350.669647 512.686096,339.237091 510.520996,327.895111 
	C509.950623,324.907043 507.872955,323.355804 504.779785,323.408844 
	C502.621613,323.445831 500.465363,323.596405 497.491028,323.847748 
z"/>
<path fill="#000000" opacity="1.000000" stroke="none" 
	d="
M447.162903,416.352661 
	C450.402557,416.512421 452.985229,417.967865 455.481323,418.976471 
	C464.076141,422.449402 470.664795,418.783234 477.176392,414.131561 
	C483.002472,409.969635 488.741547,405.876251 496.120544,404.619049 
	C505.923187,402.948853 514.659973,405.500793 521.345703,412.269348 
	C530.524353,421.561554 540.733826,422.195374 551.990784,418.133575 
	C556.010437,416.683228 557.545349,418.239380 558.476074,421.677795 
	C558.650085,422.320831 558.849854,422.958008 559.064270,423.588837 
	C562.443359,433.530487 562.545349,434.019623 552.249573,436.143585 
	C537.972107,439.088898 524.273071,438.762482 512.512878,427.788361 
	C504.198669,420.029968 499.546814,419.959534 490.283600,426.359406 
	C480.693451,432.985107 471.063477,438.696533 458.674286,437.277039 
	C453.645386,436.700806 448.919403,435.198700 444.130463,433.877472 
	C440.754272,432.945984 439.022400,431.022034 441.535492,427.242523 
	C443.756470,423.902283 442.656311,418.874573 447.162903,416.352661 
z"/>
<path fill="#000000" opacity="1.000000" stroke="none" 
	d="
M445.299133,351.065186 
	C446.946228,356.922882 449.201569,362.145325 446.265839,368.190643 
	C442.822784,375.280731 435.962250,380.846436 427.989899,380.710602 
	C419.742157,380.570160 413.266144,377.026093 409.629059,369.272156 
	C406.048096,361.637909 407.514435,352.847443 412.384735,346.870392 
	C420.354034,337.090027 437.171906,338.085907 443.208466,348.435364 
	C443.702942,349.283081 444.466949,349.973602 445.299133,351.065186 
z"/>
<path fill="#000000" opacity="1.000000" stroke="none" 
	d="
M562.174072,377.000397 
	C553.666016,369.963287 551.601807,360.625763 556.083008,350.806030 
	C559.620422,343.054443 568.600586,338.429535 577.818237,340.308868 
	C588.080139,342.401062 592.558533,349.119904 594.154236,360.380249 
	C595.162170,367.492828 588.142334,376.487885 581.061340,379.190216 
	C574.389099,381.736481 568.379150,380.715088 562.174072,377.000397 
z"/>
</svg>